<mxfile host="65bd71144e">
    <diagram id="b2bHKZBWbTtFW1Aa-H89" name="Page-1">
        <mxGraphModel dx="1700" dy="1230" grid="1" gridSize="8" guides="1" tooltips="1" connect="1" arrows="1" fold="1" page="1" pageScale="1" pageWidth="850" pageHeight="1100" background="#CCCCCC" math="0" shadow="0">
            <root>
                <mxCell id="0"/>
                <mxCell id="1" parent="0"/>
            </root>
        </mxGraphModel>
    </diagram>
</mxfile>